<?xml version="1.0" encoding="UTF-8" standalone="no"?>
<svg width="2500px" height="2000px" viewBox="0 0 2500 2000" version="1.1" xmlns="http://www.w3.org/2000/svg" xmlns:xlink="http://www.w3.org/1999/xlink" xmlns:sketch="http://www.bohemiancoding.com/sketch/ns">
    <!-- Generator: Sketch 3.0.4 (8054) - http://www.bohemiancoding.com/sketch -->
    <title>Artboard</title>
    <desc>Created with Sketch.</desc>
    <defs></defs>
    <g id="Catberry" stroke="none" stroke-width="1" fill="none" fill-rule="evenodd" sketch:type="MSPage">
        <g id="Artboard" sketch:type="MSArtboardGroup">
            <path d="M441.795919,1620.99639 C393.924262,1574.93551 353.928186,1524.62311 323.188529,1471.02356 L109.345329,1484.35744 L102.306356,1484.79634 L101.44644,1470.74652 L108.485412,1470.30762 L315.609389,1457.39271 L315.609394,1457.39271 C282.452247,1395.84123 261.406614,1330.14724 254.500793,1261.72728 L128.83009,1229.38564 L122,1227.6279 L125.523804,1214 L132.353894,1215.75774 L253.226828,1246.86466 L253.226828,1246.86466 C252.41214,1235.3148 252,1223.69101 252,1212 C252,1151.46155 263.051045,1092.72574 283.821101,1036.72286 L216,91 L920.124233,553.974975 L920.124234,553.974972 C1023.38569,528.727206 1134.39747,515 1250,515 C1365.41632,515 1476.25668,528.68302 1579.37673,553.85306 L2283.31555,91 L2215.60491,1035.18251 L2215.60491,1035.18251 C2236.7453,1091.6484 2248,1150.90627 2248,1212 C2248,1223.69101 2247.58786,1235.3148 2246.77317,1246.86466 L2246.77317,1246.86466 L2367.64611,1215.75774 L2374.4762,1214 L2378,1227.6279 L2371.16991,1229.38564 L2245.49921,1261.72728 C2238.59339,1330.14724 2217.54775,1395.84123 2184.39061,1457.39271 L2184.39061,1457.39271 L2391.51459,1470.30762 L2398.55356,1470.74652 L2397.69364,1484.79634 L2390.65467,1484.35744 L2176.81147,1471.02356 C2146.05373,1524.65465 2106.02867,1574.99472 2058.11958,1621.07768 L2058.11958,1621.07768 L2346.39307,1740.88535 L2352.90566,1743.59201 L2347.51842,1756.59641 L2341.00583,1753.88975 L2046.90041,1631.65831 C1864.72997,1800.12247 1575.57076,1909 1250,1909 C924.309306,1909 635.056994,1800.04224 452.898315,1631.47211 L158.714062,1753.88975 L152.201476,1756.59641 L146.814235,1743.59201 L153.326821,1740.88535 L441.795919,1620.99639 Z M2246.77317,1246.86466 C2246.42274,1251.83272 2245.99783,1256.78711 2245.49921,1261.72728 L1738.35389,1392.24226 L1731.5238,1394 L1728,1380.3721 L1734.83009,1378.61436 L2246.77317,1246.86466 L2246.77317,1246.86466 Z M253.226828,1246.86466 C253.577258,1251.83272 254.002167,1256.78711 254.500793,1261.72728 L761.646106,1392.24226 L768.476196,1394 L772,1380.3721 L765.16991,1378.61436 L253.226828,1246.86466 L253.226828,1246.86466 Z M2184.39061,1457.39271 C2181.93062,1461.95932 2179.40396,1466.50313 2176.81147,1471.02356 L1738.48541,1443.69238 L1731.44644,1443.25348 L1732.30636,1429.20366 L1739.34533,1429.64256 L2184.39061,1457.39271 L2184.39061,1457.39271 Z M315.609394,1457.39271 C318.069381,1461.95932 320.596036,1466.50313 323.188529,1471.02356 L761.514588,1443.69238 L768.55356,1443.25348 L767.693644,1429.20366 L760.654671,1429.64256 L315.609389,1457.39271 L315.609394,1457.39271 Z M2058.11958,1621.07768 C2054.42649,1624.63 2050.68656,1628.15703 2046.90041,1631.65831 L1737.60693,1503.11465 L1731.09434,1500.40799 L1736.48158,1487.40359 L1742.99417,1490.11025 L2058.11958,1621.07768 L2058.11958,1621.07768 Z M441.795919,1620.99639 C445.451011,1624.51322 449.152014,1628.00527 452.898315,1631.47211 L761.93242,1502.87506 L768.62555,1500.40799 L763.23831,1487.40359 L756.725724,1490.11025 L441.795919,1620.99639 Z" id="Face" fill="#FF6601" sketch:type="MSShapeGroup"></path>
            <path d="M1250,1725 L1531,1616" id="Mouth" stroke="#000000" stroke-width="26" stroke-linecap="round" sketch:type="MSShapeGroup"></path>
            <g id="Right-eye" sketch:type="MSLayerGroup" transform="translate(1397.000000, 730.000000)">
                <ellipse id="White-eye" fill="#FFFFFF" sketch:type="MSShapeGroup" cx="330" cy="300" rx="330" ry="300"></ellipse>
                <ellipse id="Blue-eye" fill="#20BFFF" sketch:type="MSShapeGroup" cx="331" cy="300" rx="306" ry="278.181818"></ellipse>
                <ellipse id="Black-eye" fill="#000000" sketch:type="MSShapeGroup" cx="331" cy="300.272727" rx="226" ry="205.454545"></ellipse>
            </g>
            <g id="Left-eye" sketch:type="MSLayerGroup" transform="translate(773.000000, 1030.000000) scale(-1, 1) translate(-773.000000, -1030.000000) translate(443.000000, 730.000000)">
                <ellipse id="White-eye" fill="#FFFFFF" sketch:type="MSShapeGroup" cx="330" cy="300" rx="330" ry="300"></ellipse>
                <ellipse id="Blue-eye" fill="#20BFFF" sketch:type="MSShapeGroup" cx="331" cy="300" rx="306" ry="278.181818"></ellipse>
                <ellipse id="Black-eye" fill="#000000" sketch:type="MSShapeGroup" cx="331" cy="300.272727" rx="226" ry="205.454545"></ellipse>
            </g>
            <path d="M1250,1354 C1125.43415,1188 807.346341,1431 1250,1573 C1692.65366,1431 1374.56585,1188 1250,1354 Z" id="Nose" fill="#000000" sketch:type="MSShapeGroup"></path>
        </g>
    </g>
</svg>